<svg xmlns="http://www.w3.org/2000/svg" version="1.1" xmlns:xlink="http://www.w3.org/1999/xlink" width="1000" height="1000"><metadata><rdf:RDF xmlns:rdf="http://www.w3.org/1999/02/22-rdf-syntax-ns#" xmlns:dc="http://purl.org/dc/elements/1.1/"><rdf:Description><dc:creator>RealFaviconGenerator</dc:creator><dc:source>https://realfavicongenerator.net</dc:source></rdf:Description></rdf:RDF></metadata><style>
    #light-icon {
      display: inline;
    }
    #dark-icon {
      display: none;
    }

    @media (prefers-color-scheme: dark) {
      #light-icon {
        display: none;
      }
      #dark-icon {
        display: inline;
      }
    }
  </style><g id="light-icon"><svg xmlns="http://www.w3.org/2000/svg" version="1.1" xmlns:xlink="http://www.w3.org/1999/xlink" width="1000" height="1000"><g><g transform="matrix(5.319148936170213,0,0,5.319148936170213,0,0)"><svg xmlns="http://www.w3.org/2000/svg" width="188" height="188" viewBox="0 0 188 188" fill="none"><g clip-path="url(#clip0_1243_5206)">
<path fill-rule="evenodd" clip-rule="evenodd" d="M149.417 96.8551C153.881 97.5852 158.527 91.9034 159.792 84.1646C161.058 76.4257 158.464 69.5603 153.999 68.8302C149.535 68.1001 144.889 73.7818 143.624 81.5207C142.358 89.2596 144.952 96.125 149.417 96.8551Z" fill="black"></path>
<path d="M53.17 67.1119C56.8009 67.54 60.3765 62.5268 61.1562 55.9145C61.9359 49.3022 59.6246 43.5948 55.9936 43.1666C52.3627 42.7385 48.7871 47.7517 48.0074 54.364C47.2276 60.9763 49.539 66.6837 53.17 67.1119Z" fill="black"></path>
<path d="M77.0043 166.142C59.6267 169.587 41.4348 161.052 33.3514 144.331L22.5349 149.56C28.462 161.82 38.5724 170.701 50.3195 175.311C63.3079 180.408 78.2972 180.285 91.8454 173.735L86.6164 162.918C83.4889 164.43 80.2609 165.496 77.0043 166.142Z" fill="black"></path>
<path fill-rule="evenodd" clip-rule="evenodd" d="M75.4173 76.1978C58.004 79.0913 44.4678 85.7225 33.8619 92.6523C32.1321 93.7825 30.4802 94.9207 28.9022 96.052C23.2027 100.138 22.7785 109.082 28.531 114.211L58.336 140.784L51.0682 148.937L21.2632 122.364C10.8426 113.073 10.5965 95.8367 22.4355 87.2492C22.4698 87.2243 22.5043 87.1994 22.5388 87.1746C25.9202 84.7507 29.6409 82.281 33.7311 79.8984C41.4752 75.3874 50.5441 71.1888 61.1431 68.2048C63.1397 67.6427 65.1906 67.1237 67.2972 66.6539C68.8457 63.9297 70.0767 60.8719 70.8956 57.5076C75.206 39.7971 65.4667 24.3815 52.1512 21.1406C38.8358 17.9 23.1022 27.1155 18.7914 44.8257C16.2978 55.0709 18.5055 64.5482 23.3874 71.3451C19.7178 73.0628 16.2705 75.1766 13.1008 77.6315C6.51417 67.9278 3.95111 54.9958 7.11802 41.9844C12.7236 18.9547 34.1575 4.39638 54.9924 9.46719C75.4252 14.4404 87.6943 36.4459 82.8736 59.0155C85.9049 58.9836 90.1335 59.1457 93.7716 60.2111C94.788 60.5088 95.7919 60.8685 96.753 61.2563C103.842 38.2491 127.726 24.4645 151.429 30.2336C176.045 36.225 191.143 61.0372 185.152 85.6531C179.16 110.269 154.348 125.367 129.732 119.376C110.024 114.579 96.4166 97.7178 94.849 78.5521C94.5908 78.4034 94.3097 78.245 94.0106 78.0812C92.3845 77.1908 90.6005 76.354 89.1674 75.9342C87.7672 75.5241 85.2419 75.3468 82.448 75.4074C81.6899 75.4239 80.9801 75.4559 80.3579 75.4926C79.3989 75.6073 78.4511 75.7334 77.5142 75.8704C76.809 75.9735 76.1101 76.0827 75.4173 76.1978ZM132.573 107.702C114.404 103.28 103.261 84.9665 107.683 66.7976C112.105 48.6287 130.419 37.4848 148.588 41.907C166.757 46.3292 177.9 64.6429 173.478 82.8118C169.056 100.981 150.742 112.125 132.573 107.702Z" fill="black"></path>
</g><defs>
<clipPath id="clip0_1243_5206">
<rect width="188" height="188" fill="white"></rect>
</clipPath>
</defs></svg></g></g></svg></g><g id="dark-icon"><svg xmlns="http://www.w3.org/2000/svg" version="1.1" xmlns:xlink="http://www.w3.org/1999/xlink" width="1000" height="1000"><g clip-path="url(#SvgjsClipPath1010)"><rect width="1000" height="1000" fill="#ffffff"></rect><g transform="matrix(4.25531914893617,0,0,4.25531914893617,100,100)"><svg xmlns="http://www.w3.org/2000/svg" width="188" height="188" viewBox="0 0 188 188" fill="none"><g clip-path="url(#clip0_1243_5206)">
<path fill-rule="evenodd" clip-rule="evenodd" d="M149.417 96.8551C153.881 97.5852 158.527 91.9034 159.792 84.1646C161.058 76.4257 158.464 69.5603 153.999 68.8302C149.535 68.1001 144.889 73.7818 143.624 81.5207C142.358 89.2596 144.952 96.125 149.417 96.8551Z" fill="black"></path>
<path d="M53.17 67.1119C56.8009 67.54 60.3765 62.5268 61.1562 55.9145C61.9359 49.3022 59.6246 43.5948 55.9936 43.1666C52.3627 42.7385 48.7871 47.7517 48.0074 54.364C47.2276 60.9763 49.539 66.6837 53.17 67.1119Z" fill="black"></path>
<path d="M77.0043 166.142C59.6267 169.587 41.4348 161.052 33.3514 144.331L22.5349 149.56C28.462 161.82 38.5724 170.701 50.3195 175.311C63.3079 180.408 78.2972 180.285 91.8454 173.735L86.6164 162.918C83.4889 164.43 80.2609 165.496 77.0043 166.142Z" fill="black"></path>
<path fill-rule="evenodd" clip-rule="evenodd" d="M75.4173 76.1978C58.004 79.0913 44.4678 85.7225 33.8619 92.6523C32.1321 93.7825 30.4802 94.9207 28.9022 96.052C23.2027 100.138 22.7785 109.082 28.531 114.211L58.336 140.784L51.0682 148.937L21.2632 122.364C10.8426 113.073 10.5965 95.8367 22.4355 87.2492C22.4698 87.2243 22.5043 87.1994 22.5388 87.1746C25.9202 84.7507 29.6409 82.281 33.7311 79.8984C41.4752 75.3874 50.5441 71.1888 61.1431 68.2048C63.1397 67.6427 65.1906 67.1237 67.2972 66.6539C68.8457 63.9297 70.0767 60.8719 70.8956 57.5076C75.206 39.7971 65.4667 24.3815 52.1512 21.1406C38.8358 17.9 23.1022 27.1155 18.7914 44.8257C16.2978 55.0709 18.5055 64.5482 23.3874 71.3451C19.7178 73.0628 16.2705 75.1766 13.1008 77.6315C6.51417 67.9278 3.95111 54.9958 7.11802 41.9844C12.7236 18.9547 34.1575 4.39638 54.9924 9.46719C75.4252 14.4404 87.6943 36.4459 82.8736 59.0155C85.9049 58.9836 90.1335 59.1457 93.7716 60.2111C94.788 60.5088 95.7919 60.8685 96.753 61.2563C103.842 38.2491 127.726 24.4645 151.429 30.2336C176.045 36.225 191.143 61.0372 185.152 85.6531C179.16 110.269 154.348 125.367 129.732 119.376C110.024 114.579 96.4166 97.7178 94.849 78.5521C94.5908 78.4034 94.3097 78.245 94.0106 78.0812C92.3845 77.1908 90.6005 76.354 89.1674 75.9342C87.7672 75.5241 85.2419 75.3468 82.448 75.4074C81.6899 75.4239 80.9801 75.4559 80.3579 75.4926C79.3989 75.6073 78.4511 75.7334 77.5142 75.8704C76.809 75.9735 76.1101 76.0827 75.4173 76.1978ZM132.573 107.702C114.404 103.28 103.261 84.9665 107.683 66.7976C112.105 48.6287 130.419 37.4848 148.588 41.907C166.757 46.3292 177.9 64.6429 173.478 82.8118C169.056 100.981 150.742 112.125 132.573 107.702Z" fill="black"></path>
</g><defs>
<clipPath id="clip0_1243_5206">
<rect width="188" height="188" fill="white"></rect>
</clipPath>
<clipPath id="SvgjsClipPath1010"><rect width="1000" height="1000" x="0" y="0" rx="350" ry="350"></rect></clipPath></defs></svg></g></g></svg></g></svg>