<?xml version="1.0" encoding="utf-8"?>
<!-- Generator: Adobe Illustrator 25.2.1, SVG Export Plug-In . SVG Version: 6.00 Build 0)  -->
<svg version="1.1" xmlns="http://www.w3.org/2000/svg" xmlns:xlink="http://www.w3.org/1999/xlink" x="0px" y="0px"
	 viewBox="0 0 403.2 800" style="enable-background:new 0 0 403.2 800;" xml:space="preserve">
<g id="Layer_1">
	<g>
		<g>
			<path d="M389.8,98.3c0-4.9-1.3-9.8-1.9-13.8c-8.4-7.7-17.9-9.5-27-11.7c-10.1-2.4-20.4-3.7-30.5-5.7c-5.5-1.1-11-2.2-16.5-3.6
				c-10-2.6-20.5-4.3-29.9-8.4c-16.4-7.1-33.4-12.4-50.4-17.6C203,28.2,172,22,139.9,22.3c-23.2,0.2-46.5,0-69.7,0.4
				c-8.6,0.1-17.3,1.2-24.6,6.4c-6.7,4.8-6.4,12.5,0.8,16.6c2.8,1.6,6,2.9,9.1,3.4C66.6,51,77.7,53,89.1,52.9
				c11.3-0.1,22.6,0,34,0.1c2.3,0,4.5,0.4,6.9,0.6c1,7.6-0.9,14.1-2.8,20.6c-5.9,19.3-10,39.1-12.4,59.1
				c-2.5,20.6-3.9,41.4-5.5,62.1c-1.4,17.8-2.5,35.6-3.6,53.3c-1.5,24.3-2.7,48.7-4.1,73c-0.6,10.1-1.3,20.2-1.8,30.2
				c-1.1,19-2.9,38-3,56.9c-0.4,73.9-0.3,147.8-0.3,221.7c0,3.2,0,6.5,0,9.6c-6.5,3.2-11.9,6.6-18.9,6.8c-6.2,0.2-12.3,2.3-18.5,2.5
				c-8.6,0.3-17.3,1.6-27.2-2c0.9-15.3,1.8-30.4,2.8-45.4c0.4-5.6,0.8-11.3,1.5-16.9c1.4-12.1,3.1-24.1,3.1-36.3
				c-0.1-128.7-0.1-257.4,0.1-386.2c0-17.5,1.2-35.1,1.8-52.6c0-1.2,0.1-2.4,0.3-3.6c1-9.4,2.2-18.8,3.1-28.3
				c0.2-2.3-0.2-4.7-0.2-6.6c-3.5-3.5-6.6-3.5-10.6,0.4c-0.6,6.2-1.2,13.2-1.9,20.3c-1.6,16.5-3.7,33-4.6,49.6
				c-1.2,21.1-1.8,42.2-1.9,63.3C25,327.7,25,450.2,24.9,572.7c0,4.8,0.2,9.6-0.5,14.3c-2.8,20.1-3.6,40.3-3.3,60.5
				c0,2.4,0.4,4.7,0.5,6.4c3.3,5.5,7.9,7.1,13.3,7.1c8,0.1,16.1,0.1,24.1,0.1c3.5,0,7,0,9.8,0c2.6,4.1,4.6,7.3,6.1,9.6
				c5.5,1.9,9.3,0.6,13.2-1.2c9.2-4.1,18.2-9.2,27.9-11.6c19-4.6,38.3-7.8,57.5-11.4c13.4-2.5,26.9-4.6,40.2-7.4
				c8.7-1.8,17.1-5,25.8-6.8c24.7-5,49-11.7,72.8-20c10.9-3.8,21.7-8,32.4-12.4c8.3-3.4,13-10.1,15.4-18.5c0.9-3.1,1.7-6.3,2.2-9.5
				c2.4-14.3,5-28.6,7-43c1.5-10.5,3.9-21,2.2-31.8c-0.4-2.9,0.2-5.9,0.5-8.9c1-9.7,2.3-19.4,3.2-29.2c0.9-9.8,0.8-19.6,2-29.3
				c2.1-17.1,3.1-34.3,3.3-51.6c0-3,0.1-6,0.3-8.9c1-10.3,2.1-20.7,3-31c0.9-10.1,1.5-20.1,2.2-30.2c1.2-16.9,3.2-33.8,3.4-50.7
				C390.2,204.4,390,151.4,389.8,98.3z M375.3,287.1c-0.9,19.6-3.1,39-4.8,58.6c-0.1,0.9-0.2,1.8-0.2,2.7
				c-0.8,15.1-1.4,30.3-2.4,45.4c-1,14.8-2.6,29.6-3.3,44.4c-0.9,19-2.8,37.9-5.6,56.7c-2.1,13.7-5.3,27.3-7.8,41
				c-2.2,12.2-4.3,24.5-6.1,36.8c-1,7.1-4.9,11.1-11.6,13.1c-22.7,6.8-45.3,14.2-68.1,20.6c-10.5,3-21.6,3.7-32.2,6.4
				c-15.5,4-31.1,7.6-46.9,10.1c-9.4,1.5-18.9,2.3-28.2,4c-14.9,2.7-29.7,5.8-44.5,8.7c-0.6,0.1-1.2-0.1-2.7-0.2
				c-0.1-2.6-0.3-4.6-0.3-6.6c0-74.2-0.1-148.4,0.3-222.5c0.1-19.9,2-39.7,3.1-59.6c0.5-9.2,1.2-18.4,1.7-27.6
				c0.8-14.8,1.4-29.7,2.4-44.5c1.4-21,3.2-42,4.7-63c0.8-10.4,1.2-20.8,2.1-31.1c1.8-19.8,3-39.7,5.9-59.3
				c2.2-14.9,6.7-29.4,10.4-44.1c1.9-7.2,3.5-14.4,3.3-21.9c-0.2-8.1-1.6-10.6-8.4-15.5c2-3.3,5.3-2.3,8.1-2.1
				c11.5,0.9,23.1,1.4,34.5,3.3c13.1,2.2,26.2,5.2,39,8.6c14,3.7,27.7,8.8,41.7,12.6c22.9,6.2,45.9,11.7,68.8,17.8
				c14.9,4,29.5,8.6,43.8,12.9c3.6,3.5,2.8,7.6,2.8,11.4c0,45.3,0,90.6,0,135.9C375,255.6,376,271.4,375.3,287.1z"/>
			<path d="M332,751.9c-6.7-4.5-12.4-5.6-18.5-5.5c-6,0.2-11.9,0.1-17.9-0.2c-3.7-0.1-7.1,0.8-10.1,2.9c-10.4,7.1-22,10-34.5,9.9
				c-11.3-0.1-22.6,0.1-34-0.2c-4.9-0.1-9.9-1.1-15.3-1.8c-0.4-3-0.9-5.2-0.9-7.5c0.1-6.3-2.4-10.3-9.9-11.4
				c-17.6,9.9-32.8,24.6-53.5,27.7c-3.9-1.7-2.7-4.7-3.2-7.2c-0.5-2.5-1.6-4.9-2.5-7.4c-2.6-0.4-4.6-0.7-6.6-0.9
				c-4.6,3.5-8.9,6.8-13.2,10.1c-3.6-4.3-6.8-8.1-9.8-11.7c-13.5-3.3-26.5-2.7-39.5-0.9c-10.3,1.4-16.5,7.4-19,17.3
				c3.3,13.4,7,17.2,20.1,18.7c6.1,0.7,12.5,0.4,18.7-0.5c9.6-1.4,19.1-3.6,27.5-5.3c4.1-3.6,7.6-6.7,11.3-10c2,2.8,3.6,4.9,5.6,7.7
				c3.4,0.5,7.2,1.4,10.9,1.3c10.7-0.3,20.1-4.9,29.1-10.2c7.1-4.1,14-8.6,21.3-13.1c0.8,1.8,1.5,2.8,1.7,3.9
				c1.2,8.3,7,11.1,14.4,12c2.1,0.2,4.2,0.2,6.2,0.2c15.2,0.1,30.4,0,45.6,0.2c9.4,0.1,18.2-2.2,26.6-6.2c4.3-2,8.5-4.3,12.3-6.3
				c6.4,0,12.4,0.1,18.3,0c6.7-0.1,11.3,3,14.4,8.7c1.3,2.3,2.6,4.6,3.6,6.4c5.2,2.2,8.1,0.5,10.4-4.7
				C338.4,762.4,334.8,756.4,332,751.9z M98.1,767.6c-4.2,1.4-8.3,3.4-12.6,3.8c-7.4,0.7-14.8,0.6-22.2,0.3
				c-4.3-0.2-4.5-0.7-7.3-6.3c0.8-3.8,4.1-5.2,7.2-5.8c11.1-2,22.2-3.6,34.1,0.2c1.1,2.1,2,4,2.9,5.8
				C99.4,766.4,98.9,767.3,98.1,767.6z"/>
		</g>
	</g>
</g>
<g id="Layer_3">
</g>
</svg>
