<?xml version="1.0" encoding="utf-8"?>
<!-- Generator: Adobe Illustrator 25.2.1, SVG Export Plug-In . SVG Version: 6.00 Build 0)  -->
<svg version="1.1" xmlns="http://www.w3.org/2000/svg" xmlns:xlink="http://www.w3.org/1999/xlink" x="0px" y="0px"
	 viewBox="0 0 1013.8 1046.9" style="enable-background:new 0 0 1013.8 1046.9;" xml:space="preserve">
<style type="text/css">
	.st0{display:none;}
	.st1{fill:#FDF4E5;}
	.st2{fill:#F683B4;}
	.st3{fill:#015A59;}
	.st4{fill:#FBC115;}
	.st5{fill:#FB5E02;}
	.st6{fill:#9AC7C8;}
</style>
<g id="Layer_1" class="st0">
	
		<image style="display:inline;overflow:visible;" width="612" height="613" xlink:href="portrait_icon.png"  transform="matrix(1 0 0 1 187.2399 199.9457)">
	</image>
</g>
<g id="Layer_2">
	<g id="Layer_6">
		<circle class="st1" cx="471.7" cy="507.1" r="471.7"/>
	</g>
	<g id="Layer_5">
		<path class="st2" d="M44.8,853.1c-5.3-15-2.7-31.7,6.4-44.7c18.9-27.1,59.9-79.5,102.8-92.1c51.1-15,100.8-64.1,112.7-76.4
			c1.2-1.2,2.3-2.5,3.4-3.9c2.9-3.8,15.8-16.8,59.5-22c46.1-5.6,246.5-40.7,287.4-47.9c4.9-0.9,9.9-1,14.9-0.4
			c24.9,3.1,104.2,13.9,131.6,28.4c24.6,13,73.6,17.7,96.4,19.3c8.4,0.6,16.5,3.2,23.5,7.7c25,16,82.6,56,86.7,88.3
			c2.9,23.4,19.2,48,32.6,64.8c16.9,21.1,14.2,51.8-6.3,69.3c-5.8,4.9-12.7,10.1-21.2,15.6C916.7,897,842.7,879.8,779,981.3
			c-60.2,96-243,24.3-262.8,16.2c-1.5-0.6-3-1.2-4.6-1.6c-17.8-5.4-117.7-31-211.3,34.9c-103.3,72.7-154.9-154.6-198-154.6
			C70.1,876.3,52.4,874.4,44.8,853.1z"/>
	</g>
	<g id="Layer_4">
		<path class="st3" d="M346.6,511.3c0,0-47.3,11.5-55.4,103.3s-35.6,112.5-35.6,112.5s-5.7,19.5,7.5,23.5c0,0,11.5-26.4,45.9-49.4
			c34.4-23,53.4-64.8,53.4-64.8s17.2,23,44.2,21.8c27-1.1,42.8,12.2,62.8,21.4c20.1,9.2,41-10.7,41-10.7l6.6-51.2
			c1.1-8.9,5-17.4,11.4-23.7c5.1-5,12.2-9.1,21-7.7c0,0,15.3,34.4,71.2,27.5c55.9-6.9,62.7,13.8,62.7,13.8s9.2-16.8-26.8-71.2
			c-36-54.3-42.8-76.5-42.8-76.5s-38.3-9.2-58.2,6.1C535.7,501.4,346.6,511.3,346.6,511.3z"/>
	</g>
	<path class="st4" d="M619.8,439.6c6.2-8.1,21.5-30.8,21.1-54.2c0-1.2,0-2.4,0.1-3.7c1.2-10.6,10-69.4,3.2-86.5
		c-6.6-16.4-2.5-30.4-0.4-34.8c0.5-1,0.9-2,1.2-3c1.8-5.6,5.9-21.6-0.7-31.9c0,0,8-36.6-1.4-53.1c-2.1-3.6-3.3-7.6-3.5-11.8
		c-0.8-16.8-5.2-56.2-28.1-60.7c-15.5-3.1-22.4-16-25.5-27.4c-3-11.4-13.6-19.1-25.3-19.1h-69.2c-6.1,0-12.1,2.2-16.8,6.1
		L334.6,175.6c-1.4,1.1-2.8,2.1-4.4,2.9l-60.7,32.6c-8.5,4.6-13.9,13.5-13.9,23.2v53.7c0,4.1,1,8.2,2.8,11.9l73.2,145
		c1.4,2.8,3.4,5.4,5.7,7.6l0,0c5.3,4.9,8.4,11.8,8.6,19l1.4,86.8c0.1,3.5,0.8,7,2.2,10.2c4.4,9.9,15.3,31.1,31.5,39.2
		c21.4,10.7,34.4,31.4,45.1,40.6c10.7,9.2,55.9,20.7,68.1,20.7c10,0,7.2-21.6,5.9-29.4c-0.3-1.6-0.7-3.2-1.3-4.7
		c-2.4-6.4-9.1-26.8-0.8-33.2c9.1-7,39.6-22.5,44.5-24.9c0.5-0.2,0.9-0.5,1.3-0.7l25.7-14.9c1.5-0.9,3-1.6,4.7-2.1
		c4.2-1.4,13.5-5.8,14.1-17c0.5-9.7-3.4-38.2-6-56.3c-1.4-9.6,2.6-19.3,10.5-25.1l21.5-15.7C616.4,443.3,618.2,441.6,619.8,439.6z"
		/>
	<path class="st5" d="M597.1,5.6c0,0,63,13.8,50.8,78.8c-12.7,67.9-37,27-37,27S567,85,541.8,95.1s-38.9,28.2-38.9,28.2
		s-62.2,40.4-99.2,47.1c-16.2,2.9-29.8,10.7-40,18.5c-13.1,10-20.5,25.7-20.5,42.2v13.2c0,0-30.3-33.6-50.4-20.2
		s-31.9,40.4-18.5,62.2s31.9,43.7,31.9,43.7s37,68.9,37,127.8c0,0-95.8-82.4-121.1-174.9s-5-116,15.1-141.2S307.8,39.2,381.8,29.1
		s35.3-16.8,104.3-23.5S569.8-2.5,597.1,5.6z"/>
	<g id="Layer_3">
		<g>
			<path class="st3" d="M691.2,215.3c-2.4-21.4-11.9-35.4-27.5-40.5c-10.5-3.4-19.6-2.7-27.1,2c-6,3.8-10.1,9.7-12.7,15.3
				c-4.8-7.1-15.6-17.7-36.5-16.2c-1.3-10-8.2-39.7-43.4-47.1c-17.9-3.8-33.5,0.7-44,12.6c-3.2,3.6-5.7,7.7-7.7,12.3l-174.3,71.3
				l6.4,3.6l165.3-67.3c-3.1,12.3-2.4,26.6,2.5,40.9c8.1,23.4,27.4,39.4,48.2,40c0.4,0,0.7,0,1.1,0c18.7,0,34.6-12.7,43.6-35
				l0.1-0.4c0.2-0.6,3.5-13.6,2.7-24.8c23.1-1.5,31.3,13.5,33,17.5c-1.4,4.6-1.9,8.1-2,8.5l5.8,1.9c0-0.2,2.9-20.3,14.9-27.9
				c5.9-3.7,13.3-4.2,21.9-1.4c20.3,6.6,23.9,30,23.9,46.5l-38.2,20.3c-0.4,2.2-1.1,4.8-2.1,8l40-21.2c-0.4,6.1-1.2,10.1-1.2,10.3
				l0,0.3c0,0.2-2,17.6-13.5,23.6c-7.2,3.7-16.5,2.5-28.4-3.9c-0.4,0.4-1.3,5.9-1.3,5.9c8.7,4.8,13.9,6.1,20.8,6.1
				c4.3,0,8.2-0.9,11.7-2.8c14-7.3,16.5-26.3,16.7-28.2C690.5,244,692.9,230.4,691.2,215.3z M579.4,205.1
				c-8.2,20.1-22.2,31.4-38.7,30.9c-18.3-0.5-35.4-14.9-42.6-35.9c-7.2-21-4.8-42,6.5-54.7c6.8-7.8,16.4-11.8,27.4-11.8
				c3.4,0,7,0.4,10.7,1.2c37.5,7.9,38.9,43,38.9,44.5l0.1,3.4l0.3,0C582.5,192.1,579.8,203.5,579.4,205.1z"/>
		</g>
	</g>
	
		<ellipse transform="matrix(0.9827 -0.1851 0.1851 0.9827 -136.8065 144.7026)" class="st6" cx="706.7" cy="805.2" rx="29.8" ry="47.1"/>
</g>
</svg>
