<?xml version="1.0" encoding="utf-8"?>
<!-- Generator: Adobe Illustrator 25.2.1, SVG Export Plug-In . SVG Version: 6.00 Build 0)  -->
<svg version="1.1" id="Layer_1" xmlns="http://www.w3.org/2000/svg" xmlns:xlink="http://www.w3.org/1999/xlink" x="0px" y="0px"
	 viewBox="0 0 1920 511.3" style="enable-background:new 0 0 1920 511.3;" xml:space="preserve">
<style type="text/css">
	.st0{clip-path:url(#SVGID_2_);}
	.st1{fill:#FBC115;}
	.st2{clip-path:url(#SVGID_2_);fill:#FB5E02;}
	.st3{clip-path:url(#SVGID_2_);fill:#F683B4;}
	.st4{clip-path:url(#SVGID_2_);fill:#E40C01;}
	.st5{clip-path:url(#SVGID_2_);fill:#9AC7C8;}
	.st6{clip-path:url(#SVGID_2_);fill:#015A59;}
</style>
<g>
	<defs>
		<rect id="SVGID_1_" width="1920" height="511.3"/>
	</defs>
	<use xlink:href="#SVGID_1_"  style="overflow:visible;fill:#FDF4E5;"/>
	<clipPath id="SVGID_2_">
		<use xlink:href="#SVGID_1_"  style="overflow:visible;"/>
	</clipPath>
	<g class="st0">
		<path class="st1" d="M812.7,732.5L750,648.9c-14.1-18.8-36.5-29.4-60-28.4l-104.4,4.3c-59,2.4-95.3-63.9-61.3-112.2l60.1-85.5
			c13.5-19.2,16.7-43.8,8.5-65.8l-36.4-98c-20.6-55.4,31.3-110.3,87.8-93l99.9,30.7c22.4,6.9,46.8,2.3,65.2-12.3l81.9-64.9
			c46.3-36.7,114.6-4.3,115.6,54.8l1.7,104.5c0.4,23.5,12.3,45.2,31.8,58.2l87,57.9c49.2,32.7,39.5,107.7-16.4,126.8l-98.9,33.9
			c-22.2,7.6-39.2,25.6-45.6,48.2l-28.2,100.6C922.5,765.8,848.2,779.7,812.7,732.5z"/>
	</g>
	
		<ellipse transform="matrix(0.1968 -0.9804 0.9804 0.1968 1068.1807 1452.3643)" class="st2" cx="1420.5" cy="74.2" rx="171.7" ry="343.3"/>
	<path class="st3" d="M1011,621.9c0,0-151-104.2,66.4-222.8s377.4-70.2,407.6-339.1s531.4-152.6,458.9,63s172.1,331.8,126.8,457.8
		C2025.5,706.7,1011,621.9,1011,621.9z"/>
	<path class="st4" d="M358.7,624.8L9.2,573.6c-14.6-2.1-27-11.9-32.4-25.6l-130.4-328.3c-5.5-13.7-3.2-29.3,6-40.9L71.4-98.3
		c9.2-11.6,23.8-17.4,38.4-15.3l349.5,51.2c14.6,2.1,27,11.9,32.4,25.6l130.4,328.3c5.5,13.7,3.2,29.3-6,40.9L397.1,609.6
		C388,621.2,373.3,627,358.7,624.8z"/>
	<path class="st5" d="M57.6,248.2C170.1,30,657.1,41.3,680.9,119.4c11.5,37.5-81.5,98-117.2,121.2
		c-149.4,97.2-297.5,84.7-297.5,108.5c0,17.1,75.5,43.7,159.4,37.4c160.3-12,249.9-136.6,276.5-114.9
		c21.9,17.9-12.6,124.1-88.1,197.5c-114.4,111.3-288.9,114.5-407,76c-48-15.7-128.6-41.9-161.9-116.6
		C8.5,346.8,51.9,259.3,57.6,248.2z"/>
	<path class="st6" d="M2000.3,227.7c-18.9,124.4-238.7,222.7-362.2,168.2c-66.6-29.4-99.3-100.8-87.7-159.2
		c25.1-126.6,261.6-210,377.4-150.2C1985.6,116.4,2007.7,178.8,2000.3,227.7z"/>
</g>
</svg>
